<svg width="511" height="32" viewBox="0 0 511 32" fill="none" xmlns="http://www.w3.org/2000/svg">
<path d="M0 0.528053H8.5967V6.37888H0V0.528053ZM0 9.06139H8.5967V31.4931H0V9.06139Z" fill="#0098FF"/>
<path d="M12.3581 9.06139H20.3634V12.7155C21.5603 11.2229 22.7713 10.1597 23.9964 9.52607C25.2215 8.87833 26.7141 8.55445 28.4743 8.55445C30.8541 8.55445 32.7128 9.26557 34.0505 10.6878C35.4024 12.0959 36.0783 14.2785 36.0783 17.2356V31.4931H27.4393V19.1578C27.4393 17.7496 27.1788 16.7569 26.6578 16.1795C26.1368 15.5881 25.4046 15.2924 24.4611 15.2924C23.4191 15.2924 22.5742 15.6867 21.9264 16.4752C21.2787 17.2638 20.9548 18.679 20.9548 20.7208V31.4931H12.3581V9.06139Z" fill="#0098FF"/>
<path d="M49.0489 9.06139H53.1466V15.3558H49.0489V31.4931H40.4311V15.3558H37.2205V9.06139H40.4311V8.04752C40.4311 7.13223 40.5297 6.12541 40.7268 5.02706C40.924 3.92871 41.2901 3.03454 41.8252 2.34455C42.3743 1.64048 43.1347 1.07723 44.1063 0.654785C45.092 0.218262 46.5283 0 48.4153 0C49.922 0 52.1116 0.176018 54.9842 0.528053L54.0337 5.72409C53.0058 5.55512 52.175 5.47063 51.5413 5.47063C50.7669 5.47063 50.2106 5.6044 49.8727 5.87195C49.5347 6.12541 49.2953 6.53377 49.1545 7.09703C49.0841 7.40682 49.0489 8.06161 49.0489 9.06139Z" fill="#0098FF"/>
<path d="M53.5496 20.3406C53.5496 16.9188 54.7043 14.1025 57.0136 11.8917C59.323 9.66689 62.442 8.55445 66.3707 8.55445C70.8627 8.55445 74.2563 9.85698 76.5516 12.462C78.3963 14.5602 79.3186 17.1441 79.3186 20.2139C79.3186 23.6638 78.171 26.4942 75.8757 28.7049C73.5945 30.9016 70.4332 32 66.3919 32C62.787 32 59.8722 31.0847 57.6473 29.2541C54.9155 26.987 53.5496 24.0158 53.5496 20.3406ZM62.1674 20.3195C62.1674 22.319 62.5688 23.7976 63.3714 24.7551C64.1881 25.7126 65.209 26.1914 66.4341 26.1914C67.6733 26.1914 68.6871 25.7197 69.4757 24.7762C70.2783 23.8328 70.6797 22.319 70.6797 20.235C70.6797 18.2917 70.2783 16.8484 69.4757 15.9049C68.6731 14.9474 67.6803 14.4686 66.4975 14.4686C65.2442 14.4686 64.2092 14.9545 63.3925 15.9261C62.5758 16.8836 62.1674 18.3481 62.1674 20.3195Z" fill="#0098FF"/>
<path d="M81.7916 9.06139H89.818V12.3353C90.9727 10.9694 92.1344 9.9978 93.3031 9.42046C94.486 8.84312 95.9082 8.55445 97.5698 8.55445C99.3581 8.55445 100.773 8.87129 101.815 9.50495C102.857 10.1386 103.709 11.0821 104.371 12.3353C105.723 10.8708 106.955 9.87811 108.067 9.35709C109.18 8.822 110.553 8.55445 112.186 8.55445C114.594 8.55445 116.474 9.27261 117.826 10.7089C119.178 12.1311 119.854 14.363 119.854 17.4046V31.4931H111.236V18.7142C111.236 17.7003 111.039 16.947 110.644 16.4541C110.067 15.6796 109.349 15.2924 108.49 15.2924C107.476 15.2924 106.659 15.6585 106.04 16.3908C105.42 17.123 105.11 18.2988 105.11 19.9182V31.4931H96.4926V19.1366C96.4926 18.1509 96.4362 17.4821 96.3236 17.13C96.1405 16.5668 95.8237 16.1162 95.3731 15.7782C94.9225 15.4262 94.3944 15.2502 93.7889 15.2502C92.8032 15.2502 91.9936 15.6233 91.3599 16.3696C90.7262 17.116 90.4094 18.341 90.4094 20.0449V31.4931H81.7916V9.06139Z" fill="#0098FF"/>
<path d="M131.092 16.3274L122.876 15.4614C123.186 14.0251 123.629 12.8986 124.206 12.0818C124.798 11.251 125.643 10.5329 126.741 9.92739C127.53 9.49087 128.614 9.15291 129.994 8.91353C131.374 8.67415 132.867 8.55445 134.472 8.55445C137.049 8.55445 139.119 8.70231 140.682 8.99802C142.245 9.27965 143.547 9.87811 144.589 10.7934C145.322 11.4271 145.899 12.3283 146.321 13.497C146.744 14.6517 146.955 15.7571 146.955 16.8132V26.7195C146.955 27.7756 147.018 28.6064 147.145 29.2119C147.286 29.8033 147.582 30.5637 148.032 31.4931H139.964C139.64 30.9157 139.428 30.4792 139.33 30.1835C139.231 29.8737 139.133 29.3949 139.034 28.7472C137.908 29.8315 136.788 30.6059 135.676 31.0706C134.155 31.6902 132.388 32 130.374 32C127.699 32 125.664 31.3804 124.27 30.1413C122.89 28.9021 122.2 27.3743 122.2 25.5578C122.2 23.8539 122.7 22.4528 123.7 21.3545C124.699 20.2561 126.544 19.4394 129.234 18.9043C132.458 18.2565 134.549 17.8059 135.507 17.5525C136.464 17.2849 137.478 16.9399 138.548 16.5175C138.548 15.4614 138.33 14.7221 137.894 14.2997C137.457 13.8772 136.69 13.666 135.591 13.666C134.183 13.666 133.127 13.8913 132.423 14.3419C131.874 14.6939 131.43 15.3558 131.092 16.3274ZM138.548 20.8475C137.366 21.27 136.133 21.6431 134.852 21.967C133.106 22.4317 132.001 22.8893 131.536 23.3399C131.057 23.8046 130.818 24.3327 130.818 24.9241C130.818 25.6 131.05 26.1562 131.515 26.5927C131.993 27.0152 132.691 27.2264 133.606 27.2264C134.563 27.2264 135.45 26.9941 136.267 26.5294C137.098 26.0647 137.682 25.5014 138.02 24.8396C138.372 24.1637 138.548 23.2906 138.548 22.2205V20.8475Z" fill="#0098FF"/>
<path d="M150.378 9.06139H158.384V12.7155C159.581 11.2229 160.792 10.1597 162.017 9.52607C163.242 8.87833 164.734 8.55445 166.495 8.55445C168.874 8.55445 170.733 9.26557 172.071 10.6878C173.423 12.0959 174.099 14.2785 174.099 17.2356V31.4931H165.46V19.1578C165.46 17.7496 165.199 16.7569 164.678 16.1795C164.157 15.5881 163.425 15.2924 162.481 15.2924C161.439 15.2924 160.595 15.6867 159.947 16.4752C159.299 17.2638 158.975 18.679 158.975 20.7208V31.4931H150.378V9.06139Z" fill="#0098FF"/>
<path d="M177.818 0.528053H186.414V6.37888H177.818V0.528053ZM177.818 9.06139H186.414V31.4931H177.818V9.06139Z" fill="#0098FF"/>
<path d="M198.012 16.3274L189.796 15.4614C190.105 14.0251 190.549 12.8986 191.126 12.0818C191.718 11.251 192.563 10.5329 193.661 9.92739C194.45 9.49087 195.534 9.15291 196.914 8.91353C198.294 8.67415 199.786 8.55445 201.392 8.55445C203.969 8.55445 206.039 8.70231 207.602 8.99802C209.165 9.27965 210.467 9.87811 211.509 10.7934C212.241 11.4271 212.819 12.3283 213.241 13.497C213.664 14.6517 213.875 15.7571 213.875 16.8132V26.7195C213.875 27.7756 213.938 28.6064 214.065 29.2119C214.206 29.8033 214.502 30.5637 214.952 31.4931H206.883C206.56 30.9157 206.348 30.4792 206.25 30.1835C206.151 29.8737 206.053 29.3949 205.954 28.7472C204.828 29.8315 203.708 30.6059 202.596 31.0706C201.075 31.6902 199.308 32 197.294 32C194.619 32 192.584 31.3804 191.19 30.1413C189.81 28.9021 189.12 27.3743 189.12 25.5578C189.12 23.8539 189.62 22.4528 190.619 21.3545C191.619 20.2561 193.464 19.4394 196.153 18.9043C199.378 18.2565 201.469 17.8059 202.427 17.5525C203.384 17.2849 204.398 16.9399 205.468 16.5175C205.468 15.4614 205.25 14.7221 204.814 14.2997C204.377 13.8772 203.61 13.666 202.511 13.666C201.103 13.666 200.047 13.8913 199.343 14.3419C198.794 14.6939 198.35 15.3558 198.012 16.3274ZM205.468 20.8475C204.285 21.27 203.053 21.6431 201.772 21.967C200.026 22.4317 198.92 22.8893 198.456 23.3399C197.977 23.8046 197.738 24.3327 197.738 24.9241C197.738 25.6 197.97 26.1562 198.435 26.5927C198.913 27.0152 199.61 27.2264 200.526 27.2264C201.483 27.2264 202.37 26.9941 203.187 26.5294C204.018 26.0647 204.602 25.5014 204.94 24.8396C205.292 24.1637 205.468 23.2906 205.468 22.2205V20.8475Z" fill="#0098FF"/>
<path d="M217.298 0.528053H226.085V16.4964L232.506 9.06139H243.088L235.041 16.9188L243.553 31.4931H233.858L229.317 22.495L226.085 25.6634V31.4931H217.298V0.528053Z" fill="#0098FF"/>
<rect x="496.5" y="0.499756" width="14.3038" height="14.3038" fill="#D52B1E"/>
<path d="M505.082 6.22095H507.943V9.08228H505.082V11.9426H502.221V9.08228H499.361V6.22095H502.221V3.3606H505.082V6.22095Z" fill="white"/>
<path d="M262.009 11.9059H254.731V9.19194H272.433V11.9059H265.155V31.5514H262.009V11.9059Z" fill="#333333"/>
<path d="M276.248 17.4572C277.204 15.8844 278.808 14.6816 281.614 14.6816C285.624 14.6816 287.073 17.2722 287.073 21.0656V31.5514H284.267V21.8983C284.267 19.3385 283.835 17.118 280.627 17.118C277.913 17.118 276.248 18.9993 276.248 22.5459V31.5514H273.442V9.19194H276.248V17.4572Z" fill="#333333"/>
<path d="M292.536 24.1805C292.659 27.758 295.188 29.4851 297.655 29.4851C300.123 29.4851 301.48 28.3748 302.189 26.7403H305.088C304.317 29.6085 301.695 31.9523 297.655 31.9523C292.412 31.9523 289.513 28.1898 289.513 23.2861C289.513 18.0432 293.029 14.6816 297.563 14.6816C302.621 14.6816 305.674 18.9376 305.304 24.1805H292.536ZM292.567 21.7749H302.343C302.281 19.431 300.524 17.0872 297.563 17.0872C295.065 17.0872 292.813 18.4441 292.567 21.7749Z" fill="#333333"/>
<path d="M315.091 9.19194H330.265V11.9059H318.237V18.6909H329.556V21.4048H318.237V28.8374H330.265V31.5514H315.091V9.19194Z" fill="#333333"/>
<path d="M334.06 10.7957H336.866V14.9591H340.012V17.2105H336.866V27.0487C336.866 28.7758 336.99 29.2075 338.593 29.2075H340.012V31.5514H337.977C334.8 31.5514 334.06 30.8421 334.06 27.3879V17.2105H331.438V14.9591H334.06V10.7957Z" fill="#333333"/>
<path d="M345.778 17.4572C346.734 15.8844 348.338 14.6816 351.144 14.6816C355.154 14.6816 356.603 17.2722 356.603 21.0656V31.5514H353.797V21.8983C353.797 19.3385 353.365 17.118 350.157 17.118C347.443 17.118 345.778 18.9993 345.778 22.5459V31.5514H342.972V9.19194H345.778V17.4572Z" fill="#333333"/>
<path d="M362.991 9.19194V12.5844H360.185V9.19194H362.991ZM362.991 14.9591V31.5514H360.185V14.9591H362.991Z" fill="#333333"/>
<path d="M380.643 20.5105H377.805C377.404 18.5367 375.677 17.1488 373.519 17.1488C371.02 17.1488 368.738 19.0918 368.738 23.2553C368.738 27.4804 371.051 29.4851 373.519 29.4851C375.862 29.4851 377.528 27.9122 377.929 26.1543H380.828C380.273 29.2692 377.281 31.9523 373.426 31.9523C368.677 31.9523 365.685 28.344 365.685 23.2861C365.685 18.3516 368.8 14.6816 373.704 14.6816C377.713 14.6816 380.273 17.704 380.643 20.5105Z" fill="#333333"/>
<path d="M382.39 27.172C382.39 23.2553 386.8 22.1142 393.616 21.3432V20.9422C393.616 17.9198 391.919 16.9021 389.853 16.9021C387.54 16.9021 386.183 18.1666 386.06 20.2021H383.161C383.438 16.6245 386.584 14.6199 389.822 14.6199C394.387 14.6199 396.453 16.8096 396.422 21.4665L396.391 25.2908C396.36 28.0664 396.515 29.9785 396.823 31.5514H393.986C393.893 30.9346 393.801 30.2561 393.77 29.2692C392.752 30.9654 391.025 31.9523 388.095 31.9523C384.98 31.9523 382.39 30.2253 382.39 27.172ZM393.831 23.5637C388.743 24.088 385.504 24.8282 385.504 27.1104C385.504 28.6832 386.707 29.7318 388.712 29.7318C391.333 29.7318 393.831 28.529 393.831 24.6123V23.5637Z" fill="#333333"/>
<path d="M402.794 31.5514H399.987V9.19194H402.794V31.5514Z" fill="#333333"/>
<path d="M432.513 24.4272C431.526 29.3617 427.671 31.9523 422.829 31.9523C416.415 31.9523 412.683 27.1412 412.683 20.3254C412.683 13.3863 416.754 8.79102 423.076 8.79102C427.702 8.79102 431.434 11.5358 432.39 16.3161H429.337C428.658 13.5405 426.499 11.4433 422.922 11.4433C418.974 11.4433 415.89 14.5274 415.89 20.3254C415.89 25.9693 418.851 29.3 423.014 29.3C426.561 29.3 428.751 27.2954 429.46 24.4272H432.513Z" fill="#333333"/>
<path d="M437.898 31.5514H435.091V9.19194H437.898V31.5514Z" fill="#333333"/>
<path d="M456.567 23.317C456.567 29.3309 452.465 31.9523 448.61 31.9523C444.755 31.9523 440.653 29.3309 440.653 23.317C440.653 17.303 444.755 14.6816 448.61 14.6816C452.465 14.6816 456.567 17.303 456.567 23.317ZM448.61 29.4851C451.139 29.4851 453.576 27.573 453.576 23.317C453.576 18.9067 451.139 17.1488 448.61 17.1488C446.081 17.1488 443.645 18.7834 443.645 23.317C443.645 27.7272 446.081 29.4851 448.61 29.4851Z" fill="#333333"/>
<path d="M469.577 29.1767C468.621 30.7496 467.11 31.9523 464.365 31.9523C460.51 31.9523 459.06 29.3617 459.06 25.5683V14.9591H461.867V24.7356C461.867 27.2954 462.299 29.5159 465.352 29.5159C468.004 29.5159 469.577 27.6347 469.577 24.088V14.9591H472.384V31.5514H469.577V29.1767Z" fill="#333333"/>
<path d="M487.599 9.19194H490.406V31.5514H487.599V29.0533C486.581 30.8112 484.823 31.9523 482.171 31.9523C478.378 31.9523 475.078 28.8066 475.078 23.317C475.078 17.8582 478.378 14.6816 482.171 14.6816C484.823 14.6816 486.581 15.8227 487.599 17.5806V9.19194ZM482.88 17.0872C480.012 17.0872 478.131 19.3694 478.131 23.317C478.131 27.2646 480.012 29.5468 482.88 29.5468C485.379 29.5468 487.722 27.6963 487.722 23.317C487.722 18.9376 485.379 17.0872 482.88 17.0872Z" fill="#333333"/>
</svg>
