<svg width="200" height="56" viewBox="0 0 200 56" fill="none" xmlns="http://www.w3.org/2000/svg">
<path d="M0 0.410708H6.75793V4.96135H0V0.410708ZM0 7.04774H6.75793V24.4946H0V7.04774ZM10.6315 7.04774H16.9245V9.88984C17.8654 8.7289 18.8174 7.89928 19.7804 7.40095C20.7435 6.90263 21.9168 6.65346 23.3005 6.65346C25.1713 6.65346 26.6352 7.20381 27.6923 8.30451C28.7495 9.40521 29.278 11.1055 29.278 13.4055V24.4946H22.4869V14.9005C22.4869 13.8053 22.2821 13.0304 21.8725 12.5759C21.463 12.1214 20.8874 11.8941 20.1457 11.8941C19.3266 11.8941 18.6624 12.2008 18.1532 12.8141C17.644 13.4274 17.3894 14.5281 17.3894 16.1162V24.4946H10.6315V7.04774ZM40.391 7.04774H43.6123V11.9434H40.391V24.4946H33.6165V11.9434H31.0927V7.04774H33.6165V6.25919C33.6165 5.54729 33.694 4.76421 33.849 3.90994C34.0039 3.05566 34.2945 2.35747 34.7207 1.81533C35.1469 1.27319 35.7446 0.835107 36.514 0.501063C37.2833 0.167019 38.4096 0 39.8929 0L40.4777 0.00972082C41.6197 0.0453638 43.1461 0.179025 45.0568 0.410708L44.3096 4.45207C43.5016 4.32064 42.8485 4.25493 42.3503 4.25493C41.7415 4.25493 41.3043 4.35624 41.0386 4.55886C40.7729 4.76147 40.5848 5.08182 40.4741 5.51991C40.4187 5.76086 40.391 6.27013 40.391 7.04774ZM44.248 15.8205C44.248 13.1591 45.1557 10.9659 46.9711 9.24092C48.7865 7.51594 51.2384 6.65346 54.3268 6.65346C57.8579 6.65346 60.5257 7.66653 62.33 9.6927C63.7801 11.3246 64.5052 13.3343 64.5052 15.7219C64.5052 18.4052 63.6058 20.6038 61.807 22.3179C60.0082 24.0319 57.5203 24.8889 54.3434 24.8889C51.5096 24.8889 49.2182 24.177 47.4692 22.7532C45.3217 20.9899 44.248 18.679 44.248 15.8205ZM51.0225 15.804C51.0225 17.3593 51.3408 18.5092 51.9773 19.254C52.6138 19.9987 53.4135 20.3711 54.3766 20.3711C55.3507 20.3711 56.1505 20.0042 56.7759 19.2704C57.4013 18.5366 57.714 17.3593 57.714 15.7383C57.714 14.2269 57.3986 13.1016 56.7676 12.3623C56.1366 11.623 55.3562 11.2534 54.4264 11.2534C53.4412 11.2534 52.6276 11.6285 51.9856 12.3787C51.3435 13.129 51.0225 14.2707 51.0225 15.804ZM67.3659 7.04774H73.6755V9.59413C74.5832 8.53176 75.4992 7.77607 76.4235 7.32703C77.3478 6.87798 78.463 6.65346 79.7692 6.65346C81.1751 6.65346 82.2875 6.89989 83.1067 7.39274C83.9258 7.88559 84.5955 8.61938 85.1158 9.59413C86.1785 8.4551 87.147 7.68024 88.0215 7.26953C88.896 6.85882 89.9753 6.65346 91.2594 6.65346C93.1523 6.65346 94.63 7.20928 95.6927 8.32094C96.7554 9.43259 97.2867 11.1712 97.2867 13.5369V24.4946H90.5122V14.5555C90.5122 13.7669 90.3572 13.181 90.0472 12.7977C89.5934 12.1953 89.0289 11.8941 88.3536 11.8941C87.5566 11.8941 86.9146 12.1789 86.4275 12.7484C85.9405 13.3179 85.6969 14.2324 85.6969 15.4919V24.4946H78.9224V14.884C78.9224 14.1174 78.8781 13.5972 78.7896 13.3234C78.6457 12.8853 78.3966 12.5321 78.0424 12.2637C77.6882 11.9954 77.2731 11.8612 76.7971 11.8612C76.0222 11.8612 75.3857 12.1515 74.8876 12.7319C74.3894 13.3124 74.1404 14.2652 74.1404 15.5905V24.4946H67.3659V7.04774ZM107.038 12.6991L100.579 12.0255C100.823 10.9084 101.174 10.0295 101.633 9.38878C102.093 8.74807 102.754 8.19225 103.618 7.72131C104.238 7.38179 105.09 7.11894 106.175 6.93275C107.26 6.74656 108.433 6.65346 109.695 6.65346C111.721 6.65346 113.348 6.76572 114.576 6.99025C115.805 7.21477 116.829 7.68297 117.648 8.39487C118.224 8.88772 118.678 9.58591 119.01 10.4895C119.342 11.393 119.508 12.2555 119.508 13.0769V20.7818C119.508 21.6032 119.561 22.2467 119.666 22.7121C119.771 23.1776 120.001 23.7718 120.355 24.4946H114.012C113.757 24.0456 113.591 23.7033 113.514 23.4678C113.436 23.2324 113.359 22.8627 113.281 22.3589C112.396 23.2023 111.516 23.8046 110.641 24.166C109.446 24.6479 108.057 24.8889 106.474 24.8889C104.37 24.8889 102.774 24.407 101.683 23.4432C100.593 22.4794 100.048 21.2911 100.048 19.8783C100.048 18.553 100.441 17.4633 101.227 16.609C101.956 15.8158 103.259 15.2114 105.134 14.7959L108.711 14.0606C109.533 13.884 110.132 13.745 110.508 13.6437C111.261 13.4411 112.058 13.1755 112.899 12.8469C112.899 12.0255 112.728 11.4505 112.385 11.122C112.042 10.7934 111.438 10.6291 110.575 10.6291C109.468 10.6291 108.638 10.8044 108.084 11.1548C107.653 11.4286 107.304 11.9434 107.038 12.6991ZM112.899 16.2147C112.202 16.4612 111.483 16.686 110.742 16.8893L109.994 17.0854C108.621 17.4469 107.752 17.8028 107.387 18.1533C107.01 18.5147 106.822 18.9254 106.822 19.3854C106.822 19.9111 107.008 20.341 107.379 20.675C107.749 21.0091 108.295 21.1761 109.014 21.1761C109.767 21.1761 110.467 20.9954 111.114 20.634C111.762 20.2725 112.221 19.8317 112.493 19.3115C112.764 18.7912 112.899 18.115 112.899 17.2826V16.2147ZM123.116 7.04774H129.409V9.88984C130.35 8.7289 131.302 7.89928 132.265 7.40095C133.228 6.90263 134.401 6.65346 135.785 6.65346C137.656 6.65346 139.12 7.20381 140.177 8.30451C141.234 9.40521 141.762 11.1055 141.762 13.4055V24.4946H134.971V14.9005C134.971 13.8053 134.766 13.0304 134.357 12.5759C133.947 12.1214 133.372 11.8941 132.63 11.8941C131.811 11.8941 131.147 12.2008 130.638 12.8141C130.128 13.4274 129.874 14.5281 129.874 16.1162V24.4946H123.116V7.04774ZM145.603 0.410708H152.361V4.96135H145.603V0.410708ZM145.603 7.04774H152.361V24.4946H145.603V7.04774ZM162.394 12.6991L155.935 12.0255C156.179 10.9084 156.53 10.0295 156.99 9.38878C157.449 8.74807 158.11 8.19225 158.974 7.72131C159.594 7.38179 160.446 7.11894 161.531 6.93275C162.616 6.74656 163.789 6.65346 165.051 6.65346C167.077 6.65346 168.704 6.76572 169.933 6.99025C171.161 7.21477 172.185 7.68297 173.004 8.39487C173.58 8.88772 174.034 9.58591 174.366 10.4895C174.698 11.393 174.864 12.2555 174.864 13.0769V20.7818C174.864 21.6032 174.917 22.2467 175.022 22.7121C175.127 23.1776 175.357 23.7718 175.711 24.4946H169.368L169.143 24.0812C169.013 23.8293 168.922 23.6248 168.87 23.4678C168.793 23.2324 168.715 22.8627 168.638 22.3589C167.752 23.2023 166.872 23.8046 165.997 24.166C164.802 24.6479 163.413 24.8889 161.83 24.8889C159.727 24.8889 158.13 24.407 157.04 23.4432C155.949 22.4794 155.404 21.2911 155.404 19.8783C155.404 18.553 155.797 17.4633 156.583 16.609C157.313 15.8158 158.615 15.2114 160.49 14.7959L164.067 14.0606C164.889 13.884 165.488 13.745 165.865 13.6437C166.617 13.4411 167.414 13.1755 168.256 12.8469C168.256 12.0255 168.084 11.4505 167.741 11.122C167.398 10.7934 166.795 10.6291 165.931 10.6291C164.824 10.6291 163.994 10.8044 163.44 11.1548C163.009 11.4286 162.66 11.9434 162.394 12.6991ZM168.256 16.2147C167.558 16.4612 166.839 16.686 166.098 16.8893L165.35 17.0854C163.977 17.4469 163.108 17.8028 162.743 18.1533C162.367 18.5147 162.179 18.9254 162.179 19.3854C162.179 19.9111 162.364 20.341 162.735 20.675C163.106 21.0091 163.651 21.1761 164.37 21.1761C165.123 21.1761 165.823 20.9954 166.471 20.634C167.118 20.2725 167.578 19.8317 167.849 19.3115C168.12 18.7912 168.256 18.115 168.256 17.2826V16.2147ZM178.472 0.410708H185.379V12.8305L190.427 7.04774H198.746L192.42 13.1591L199.111 24.4946H191.49L187.92 17.4962L185.379 19.9604V24.4946H178.472V0.410708Z" fill="#0098FF"/>
<path d="M10.0822 41.8875H4.95825V39.9768H17.4207V41.8875H12.2968V55.7178H10.0822V41.8875Z" fill="#333333"/>
<path d="M20.5404 45.7955C21.2135 44.6883 22.3425 43.8415 24.3182 43.8415C27.1407 43.8415 28.1612 45.6653 28.1612 48.3358V55.7178H26.1854V48.922C26.1854 47.12 25.8815 45.5567 23.6235 45.5567C21.7128 45.5567 20.5404 46.8811 20.5404 49.378V55.7178H18.5647V39.9768H20.5404V45.7955Z" fill="#333333"/>
<path d="M32.4411 50.5287C32.5279 53.0472 34.3083 54.2631 36.0452 54.2631C37.7821 54.2631 38.7375 53.4815 39.2368 52.3307H41.2777C40.7349 54.3499 38.8894 56 36.0452 56C32.3542 56 30.3133 53.3512 30.3133 49.899C30.3133 46.2081 32.7885 43.8415 35.9801 43.8415C39.5408 43.8415 41.6902 46.8377 41.4297 50.5287H32.4411ZM32.4628 48.8352H39.3454C39.302 47.1851 38.0644 45.535 35.9801 45.535C34.2214 45.535 32.6365 46.4903 32.4628 48.8352Z" fill="#333333"/>
<path d="M49.1885 39.9768H59.8707V41.8875H51.4031V46.664H59.3713V48.5746H51.4031V53.8071H59.8707V55.7178H49.1885V39.9768Z" fill="#333333"/>
<path d="M62.9764 41.1058H64.9522V44.0369H67.1668V45.6219H64.9522V52.5479C64.9522 53.7637 65.0391 54.0677 66.1681 54.0677H67.1668V55.7178H65.7338C63.4975 55.7178 62.9764 55.2184 62.9764 52.7867V45.6219H61.131V44.0369H62.9764V41.1058Z" fill="#333333"/>
<path d="M71.6602 45.7955C72.3333 44.6883 73.4623 43.8415 75.4381 43.8415C78.2606 43.8415 79.281 45.6653 79.281 48.3358V55.7178H77.3053V48.922C77.3053 47.12 77.0013 45.5567 74.7433 45.5567C72.8327 45.5567 71.6602 46.8811 71.6602 49.378V55.7178H69.6845V39.9768H71.6602V45.7955Z" fill="#333333"/>
<path d="M84.2123 39.9768V42.3651H82.2365V39.9768H84.2123ZM84.2123 44.0369V55.7178H82.2365V44.0369H84.2123Z" fill="#333333"/>
<path d="M97.0732 47.945H95.0757C94.7935 46.5555 93.5776 45.5784 92.0578 45.5784C90.2992 45.5784 88.6925 46.9463 88.6925 49.8773C88.6925 52.8518 90.3209 54.2631 92.0578 54.2631C93.7079 54.2631 94.8803 53.1558 95.1626 51.9182H97.2035C96.8126 54.1111 94.7066 56 91.9927 56C88.6491 56 86.5431 53.4597 86.5431 49.899C86.5431 46.4252 88.7359 43.8415 92.1881 43.8415C95.0106 43.8415 96.8126 45.9692 97.0732 47.945Z" fill="#333333"/>
<path d="M98.7372 52.6347C98.7372 49.8773 101.842 49.074 106.64 48.5312V48.249C106.64 46.1212 105.446 45.4047 103.991 45.4047C102.363 45.4047 101.408 46.2949 101.321 47.7279H99.28C99.4754 45.2093 101.69 43.7981 103.97 43.7981C107.183 43.7981 108.638 45.3396 108.616 48.6181L108.594 51.3103C108.573 53.2643 108.681 54.6105 108.898 55.7178H106.901C106.836 55.2835 106.77 54.8059 106.749 54.1111C106.032 55.3052 104.816 56 102.754 56C100.561 56 98.7372 54.7842 98.7372 52.6347ZM106.792 50.0944C103.21 50.4635 100.93 50.9846 100.93 52.5913C100.93 53.6986 101.777 54.4368 103.188 54.4368C105.034 54.4368 106.792 53.59 106.792 50.8326V50.0944Z" fill="#333333"/>
<path d="M113.536 55.7178H111.56V39.9768H113.536V55.7178Z" fill="#333333"/>
<path d="M135.327 50.7024C134.632 54.1762 131.918 56 128.509 56C123.993 56 121.366 52.613 121.366 47.8147C121.366 42.9296 124.232 39.6946 128.683 39.6946C131.94 39.6946 134.567 41.6269 135.24 44.9922H133.09C132.613 43.0382 131.093 41.5618 128.574 41.5618C125.795 41.5618 123.624 43.7329 123.624 47.8147C123.624 51.7879 125.708 54.1328 128.639 54.1328C131.136 54.1328 132.678 52.7215 133.177 50.7024H135.327Z" fill="#333333"/>
<path d="M139.551 55.7178H137.576V39.9768H139.551V55.7178Z" fill="#333333"/>
<path d="M153.129 49.9208C153.129 54.1545 150.241 56 147.527 56C144.813 56 141.926 54.1545 141.926 49.9208C141.926 45.687 144.813 43.8415 147.527 43.8415C150.241 43.8415 153.129 45.687 153.129 49.9208ZM147.527 54.2631C149.308 54.2631 151.023 52.917 151.023 49.9208C151.023 46.816 149.308 45.5784 147.527 45.5784C145.747 45.5784 144.032 46.7291 144.032 49.9208C144.032 53.0255 145.747 54.2631 147.527 54.2631Z" fill="#333333"/>
<path d="M162.722 54.046C162.049 55.1533 160.985 56 159.053 56C156.339 56 155.318 54.1762 155.318 51.5057V44.0369H157.294V50.9195C157.294 52.7215 157.598 54.2848 159.747 54.2848C161.615 54.2848 162.722 52.9604 162.722 50.4635V44.0369H164.698V55.7178H162.722V54.046Z" fill="#333333"/>
<path d="M175.844 39.9768H177.819V55.7178H175.844V53.9591C175.127 55.1967 173.89 56 172.022 56C169.352 56 167.029 53.7854 167.029 49.9208C167.029 46.0778 169.352 43.8415 172.022 43.8415C173.89 43.8415 175.127 44.6448 175.844 45.8824V39.9768ZM172.522 45.535C170.503 45.535 169.178 47.1417 169.178 49.9208C169.178 52.6998 170.503 54.3065 172.522 54.3065C174.28 54.3065 175.93 53.0038 175.93 49.9208C175.93 46.8377 174.28 45.535 172.522 45.535Z" fill="#333333"/>
<rect x="183.264" y="34.2222" width="10.8889" height="10.8889" fill="#D52B1E"/>
<path d="M189.797 38.5776H191.975V40.7554H189.797V42.9331H187.619V40.7554H185.442V38.5776H187.619V36.3999H189.797V38.5776Z" fill="white"/>
</svg>
